# xmcd CD database file
#
# Track frame offsets:
#	150
#	16314
#	31476
#	45845
#	64355
#	76842
#	90048
#	103480
#	119628
#	133546
#
# Disc length: 2007 seconds
#
# Revision: 0
# Processed by: cddbd v1.5.1PL0 Copyright (c) Steve Scherf et al.
# Submitted via: CDex 1.51
#
DISCID=7907d50a
DTITLE=Various Artist - Best Of Country [CD2)
DYEAR=2004
DGENRE=Country
TTITLE0=Exile - She's A Miracle
TTITLE1=Lacy J Dalton - Takin' It Easy
TTITLE2=T.G. Sheppard - Do You Want To Go To Heaven
TTITLE3=Juice Newton - Angel Of The Morning
TTITLE4=Freddy Fender - Wasted Days And Wasted Nights
TTITLE5=Janie Fricke - He's A Heartache
TTITLE6=Moe Bandy - She's Not Cheatin', She's Just Gettin' Even
TTITLE7=Exile - She's Too Good To Be True
TTITLE8=Lacy J Dalton - Tennessee Waltz
TTITLE9=T.G. Sheppard - Finally
EXTD=YEAR: 2004
EXTT0=
EXTT1=
EXTT2=
EXTT3=
EXTT4=
EXTT5=
EXTT6=
EXTT7=
EXTT8=
EXTT9=
PLAYORDER=
